<svg xmlns="http://www.w3.org/2000/svg" width="570.288" height="441.855" viewBox="0 0 570.288 441.855">
  <g id="admet" transform="translate(0 -187.075)">
    <path id="Tracé_44" data-name="Tracé 44" d="M351.657,482.837a17.261,17.261,0,1,0-34.355,2.269l-49.591,64.942a24.044,24.044,0,0,0,3.25,26.4l3.89,4.538,17.849-3.57,20.23-17.849-2.38-20.23,24.99-39.269-.032-.028a17.247,17.247,0,0,0,16.151-17.2Z" transform="translate(44.462 -195.674)" fill="#ffb9b9"/>
    <path id="Tracé_45" data-name="Tracé 45" d="M33.563,455.858l-8.1-30.065,112.111-45.528,11.947,44.372Z" transform="translate(19.616 148.797)" fill="#ffb8b8"/>
    <path id="Tracé_46" data-name="Tracé 46" d="M116.358,706.3l-26.1-96.94,1.226-.33A39.078,39.078,0,0,1,139.375,636.6v0l15.941,59.208Z" transform="translate(-90.258 -86.133)" fill="#2f2e41"/>
    <path id="Tracé_47" data-name="Tracé 47" d="M128.233,474.271,103.054,455.96,161.7,350.121l37.164,27.026Z" transform="translate(79.373 125.579)" fill="#ffb8b8"/>
    <path id="Tracé_48" data-name="Tracé 48" d="M236.463,701.482l-81.192-59.047.747-1.027a39.078,39.078,0,0,1,54.584-8.622h0l49.589,36.064Z" transform="translate(-40.184 -72.552)" fill="#2f2e41"/>
    <path id="Tracé_49" data-name="Tracé 49" d="M426.3,599.082,362.94,537.528a32,32,0,0,0-41.9-2.34L201.4,668.1l10.71,16.659,114.236-77.347L403.7,708.558l73.778-36.888Z" transform="translate(-4.655 -147.132)" fill="#2f2e41"/>
    <path id="Tracé_50" data-name="Tracé 50" d="M361.64,584.315l-46.409-3.57L281.622,572.6a17.264,17.264,0,1,0-3.275,22.4l0,.024,20.23,8.33L385.439,633.1l10.71-8.33Z" transform="translate(32.64 -119.275)" fill="#ffb9b9"/>
    <path id="Tracé_51" data-name="Tracé 51" d="M467.65,472.616l-26.18,16.659H410.53L266.545,435.727,55.921,473.806l-5.95-45.22L242.747,344.1l168.975,55.928Z" transform="translate(38.488 120.941)" fill="#2f2e41"/>
    <circle id="Ellipse_152" data-name="Ellipse 152" cx="46.409" cy="46.409" r="46.409" transform="translate(403.801 211.576)" fill="#ffb9b9"/>
    <path id="Tracé_52" data-name="Tracé 52" d="M516.437,620.115a266.642,266.642,0,0,1-13.076,82.472l-3.476,10.691-16.66,76.158-17.85,4.76-13.09-16.66L426.107,758.5l-19.038-30.939-16.327-27.2-5.093-8.5L367.8,602.611l-67.828-38.079-22.609-3.57,4.76-13.09L302.351,520.5l20.229-2.38,5.95-4.76,4.76,2.38,26.239,10.108L444.6,489.909l12.447,2.035,42.839,35.7A266.415,266.415,0,0,1,516.437,620.115Z" transform="translate(53.851 -176.84)" fill="#ccc"/>
    <path id="Tracé_53" data-name="Tracé 53" d="M372.295,350.8l-45.218,29.748L259.582,441.4l-5.093-8.5-14.28-71.4h3.57l36.889-67.827Z" transform="translate(185.011 82.111)" opacity="0.1"/>
    <path id="Tracé_54" data-name="Tracé 54" d="M296.718,289.649l-36.889,67.827-21.42,23.8-19.039,4.76,51.168,55.928,72.587-65.448,45.218-29.75Z" transform="translate(168.961 79.003)" fill="#ccc"/>
    <path id="Tracé_55" data-name="Tracé 55" d="M331.2,455.138l-5.028,1.935a7.02,7.02,0,0,1-1.877-9.748l.083-.119-9.292-.435a70.166,70.166,0,0,1,104.749-8.443c.423-1.457,5.035,1.378,6.918,4.252.633-2.371,4.957,9.09,6.486,17.192.708-2.7,3.43,1.657,1.045,5.836,1.511-.221,2.194,3.646,1.024,5.8,1.653-.777,1.375,3.839-.418,6.923,2.359-.21-.2,48.382-35.605,44.841-2.465-11.325-1.77-10.621-4.673-25.184-1.351-1.434-2.83-2.74-4.307-4.044l-7.988-7.051c-9.289-8.2-17.739-18.319-30.113-21.383-8.5-2.106-13.881-2.581-9.247-12.164-4.187,1.747-8.1,4.346-12.322,5.969C330.695,457.976,331.286,456.476,331.2,455.138Z" transform="translate(82.909 -231.659)" fill="#2f2e41"/>
    <circle id="Ellipse_153" data-name="Ellipse 153" cx="8.33" cy="8.33" r="8.33" transform="translate(465.084 255.009)" fill="#ffb9b9"/>
  </g>
</svg>
