<svg xmlns="http://www.w3.org/2000/svg" width="112" height="14" viewBox="0 0 112 14">
  <g id="nuage" transform="translate(-4837 -4608.146)">
    <rect id="Rectangle_17" data-name="Rectangle 17" width="112" height="3" transform="translate(4837 4608.146)" fill="#fef4e6"/>
    <ellipse id="Ellipse_1" data-name="Ellipse 1" cx="7" cy="6.5" rx="7" ry="6.5" transform="translate(4842 4609.146)" fill="#fef4e6"/>
    <circle id="Ellipse_6" data-name="Ellipse 6" cx="6.5" cy="6.5" r="6.5" transform="translate(4879 4609.146)" fill="#fef4e6"/>
    <circle id="Ellipse_11" data-name="Ellipse 11" cx="6.5" cy="6.5" r="6.5" transform="translate(4916 4609.146)" fill="#fef4e6"/>
    <ellipse id="Ellipse_3" data-name="Ellipse 3" cx="4.5" cy="5" rx="4.5" ry="5" transform="translate(4853 4609.146)" fill="#fef4e6"/>
    <ellipse id="Ellipse_8" data-name="Ellipse 8" cx="4.5" cy="5" rx="4.5" ry="5" transform="translate(4889 4609.146)" fill="#fef4e6"/>
    <ellipse id="Ellipse_13" data-name="Ellipse 13" cx="4.5" cy="5" rx="4.5" ry="5" transform="translate(4926 4609.146)" fill="#fef4e6"/>
    <ellipse id="Ellipse_4" data-name="Ellipse 4" cx="5" cy="5.5" rx="5" ry="5.5" transform="translate(4860 4609.146)" fill="#fef4e6"/>
    <ellipse id="Ellipse_7" data-name="Ellipse 7" cx="5" cy="5.5" rx="5" ry="5.5" transform="translate(4896 4609.146)" fill="#fef4e6"/>
    <ellipse id="Ellipse_12" data-name="Ellipse 12" cx="5" cy="5.5" rx="5" ry="5.5" transform="translate(4933 4609.146)" fill="#fef4e6"/>
    <ellipse id="Ellipse_5" data-name="Ellipse 5" cx="4" cy="3.5" rx="4" ry="3.5" transform="translate(4867 4609.146)" fill="#fef4e6"/>
    <circle id="Ellipse_10" data-name="Ellipse 10" cx="3.5" cy="3.5" r="3.5" transform="translate(4904 4609.146)" fill="#fef4e6"/>
    <circle id="Ellipse_15" data-name="Ellipse 15" cx="4" cy="4" r="4" transform="translate(4941 4609.146)" fill="#fef4e6"/>
    <circle id="Ellipse_2" data-name="Ellipse 2" cx="3.5" cy="3.5" r="3.5" transform="translate(4837 4609.146)" fill="#fef4e6"/>
    <circle id="Ellipse_9" data-name="Ellipse 9" cx="4" cy="4" r="4" transform="translate(4873 4609.146)" fill="#fef4e6"/>
    <circle id="Ellipse_14" data-name="Ellipse 14" cx="4" cy="4" r="4" transform="translate(4910 4609.146)" fill="#fef4e6"/>
  </g>
</svg>
