<svg xmlns="http://www.w3.org/2000/svg" width="1620.001" height="366.001" viewBox="0 0 1620.001 366.001">
  <g id="newsletter" transform="translate(-150 -7964)">
    <path id="background" d="M32,0H1588a32,32,0,0,1,32,32V334a32,32,0,0,1-32,32H32A32,32,0,0,1,0,334V32A32,32,0,0,1,32,0Z" transform="translate(150 7964)" fill="none"/>
    <g id="Mask_Group" data-name="Mask Group">
      <path id="Vector" d="M182,8330a32,32,0,0,1-32-32V8147.508a51.5,51.5,0,0,1,46.668-9.955,52.373,52.373,0,0,1,37.235,37.162l38.807,142.574a53.523,53.523,0,0,1,1.877,12.71Z" fill="#0052a0"/>
      <path id="Vector-2" data-name="Vector" d="M182,8330a32,32,0,0,1-32-32V8141.131a53.116,53.116,0,0,1,16.1,1.817,52.372,52.372,0,0,1,37.234,37.163l38.807,142.573A54.2,54.2,0,0,1,243.6,8330Z" fill="#e6b565"/>
      <path id="Vector-3" data-name="Vector" d="M1750.1,8119a81.041,81.041,0,0,1-70.922-41.205,82.365,82.365,0,0,1-.082-82.733l17.769-31.06H1738a32,32,0,0,1,32,32v123Z" fill="#0052a0" opacity="0.341"/>
      <path id="Vector-4" data-name="Vector" d="M1719.181,8105.795a82.369,82.369,0,0,1-.079-82.736l32.149-56.195A32,32,0,0,1,1770,7996v148.545A81.157,81.157,0,0,1,1719.181,8105.795Z" fill="#e6b565"/>
      <path id="Vector-5" data-name="Vector" d="M1723.869,8330l12.133-6.789a9.8,9.8,0,0,1,9.645.009,9.373,9.373,0,0,1,4.1,4.555A31.914,31.914,0,0,1,1738,8330Zm-11.4-8.2a9.208,9.208,0,0,1-4.8-8.086V8287.4a9.208,9.208,0,0,1,4.8-8.086,9.788,9.788,0,0,1,9.647-.009l23.514,13.157a9.207,9.207,0,0,1,0,16.19l-23.514,13.157a9.788,9.788,0,0,1-9.647-.009Zm-27.134.009-23.514-13.157a9.207,9.207,0,0,1,0-16.19l23.514-13.157a9.784,9.784,0,0,1,9.645.009,9.2,9.2,0,0,1,4.8,8.086v26.315a9.2,9.2,0,0,1-4.8,8.086,9.784,9.784,0,0,1-9.645.009Zm77.818-13.157a9.207,9.207,0,0,1,0-16.19l6.848-3.831V8298a31.889,31.889,0,0,1-2.73,12.952Zm-.017-31.889a9.2,9.2,0,0,1-4.8-8.086v-26.313a9.2,9.2,0,0,1,4.8-8.086,9.874,9.874,0,0,1,4.83-1.275,9.767,9.767,0,0,1,2.035.217v44.6a9.77,9.77,0,0,1-2.035.216A9.873,9.873,0,0,1,1763.136,8276.761Zm-27.134.011-23.516-13.157a9.208,9.208,0,0,1,0-16.192L1736,8234.267a9.784,9.784,0,0,1,9.645.009,9.2,9.2,0,0,1,4.8,8.086v26.313a9.205,9.205,0,0,1-4.8,8.086,9.8,9.8,0,0,1-9.645.011Z" fill="#0052a0"/>
      <path id="Vector-6" data-name="Vector" d="M413.639,8265.76,350.793,8152.4a47.574,47.574,0,0,1,.044-46.5c8.076-14.5,22.515-23.155,38.625-23.155H515.157c16.11,0,30.549,8.655,38.627,23.155a48.439,48.439,0,0,1,4.566,11.377,47.4,47.4,0,0,1,.013,23.78,48.388,48.388,0,0,1-4.532,11.341l-62.85,113.36C482.912,8280.313,468.456,8289,452.31,8289S421.711,8280.313,413.639,8265.76Zm215.126-244.248L596.881,7964h141.11l-31.885,57.511c-8.067,14.55-22.524,23.238-38.669,23.238S636.833,8036.063,628.766,8021.512Zm-239.3,23.238c-16.11,0-30.549-8.657-38.625-23.155a47.579,47.579,0,0,1-.044-46.5l6.152-11.1H547.677l6.152,11.1a48.328,48.328,0,0,1,4.532,11.339,47.4,47.4,0,0,1-.013,23.78,48.411,48.411,0,0,1-4.566,11.379c-8.078,14.5-22.517,23.155-38.627,23.155Zm-185.57-23.238-31.134-56.157A32.01,32.01,0,0,1,182,7964H313.117l-31.885,57.511c-8.067,14.55-22.524,23.238-38.669,23.238S211.959,8036.063,203.892,8021.512Z" fill="#fff" opacity="0.2"/>
    </g>
  </g>
</svg>
