<svg xmlns="http://www.w3.org/2000/svg" width="79" height="43.16" viewBox="0 0 79 43.16">
  <g id="points_carres" transform="translate(-1731 -5463)" opacity="0.4">
    <circle id="Ellipse_25" data-name="Ellipse 25" cx="3.95" cy="3.95" r="3.95" transform="translate(1731 5480.62)" fill="#0052a0"/>
    <circle id="Ellipse_33" data-name="Ellipse 33" cx="3.95" cy="3.95" r="3.95" transform="translate(1731 5498.26)" fill="#0052a0"/>
    <circle id="Ellipse_29" data-name="Ellipse 29" cx="3.95" cy="3.95" r="3.95" transform="translate(1731 5463)" fill="#0052a0"/>
    <circle id="Ellipse_26" data-name="Ellipse 26" cx="3.95" cy="3.95" r="3.95" transform="translate(1754.7 5480.62)" fill="#0052a0"/>
    <circle id="Ellipse_34" data-name="Ellipse 34" cx="3.95" cy="3.95" r="3.95" transform="translate(1754.7 5498.26)" fill="#0052a0"/>
    <circle id="Ellipse_30" data-name="Ellipse 30" cx="3.95" cy="3.95" r="3.95" transform="translate(1754.7 5463)" fill="#0052a0"/>
    <circle id="Ellipse_27" data-name="Ellipse 27" cx="3.95" cy="3.95" r="3.95" transform="translate(1778.4 5480.62)" fill="#0052a0"/>
    <circle id="Ellipse_35" data-name="Ellipse 35" cx="3.95" cy="3.95" r="3.95" transform="translate(1778.4 5498.26)" fill="#0052a0"/>
    <circle id="Ellipse_31" data-name="Ellipse 31" cx="3.95" cy="3.95" r="3.95" transform="translate(1778.4 5463)" fill="#0052a0"/>
    <circle id="Ellipse_28" data-name="Ellipse 28" cx="3.95" cy="3.95" r="3.95" transform="translate(1802.1 5480.62)" fill="#0052a0"/>
    <circle id="Ellipse_36" data-name="Ellipse 36" cx="3.95" cy="3.95" r="3.95" transform="translate(1802.1 5498.26)" fill="#0052a0"/>
    <circle id="Ellipse_32" data-name="Ellipse 32" cx="3.95" cy="3.95" r="3.95" transform="translate(1802.1 5463)" fill="#0052a0"/>
  </g>
</svg>
