<svg xmlns="http://www.w3.org/2000/svg" width="79.911" height="83.032" viewBox="0 0 79.911 83.032">
  <g id="Groupe_41" data-name="Groupe 41" transform="translate(-510.089 -5033)">
    <g id="Groupe_40" data-name="Groupe 40">
      <g id="bookmark_1" data-name="bookmark 1">
        <g id="Group">
          <path id="Vector" d="M514.54,5116.032a5.085,5.085,0,0,1-2.63-.732,4.366,4.366,0,0,1-1.821-3.64v-51.31a14.077,14.077,0,0,1,14.281-14.28H553.7a14.075,14.075,0,0,1,14.279,14.28v51.31a4.367,4.367,0,0,1-1.819,3.64,7.539,7.539,0,0,1-2.59.7,2.315,2.315,0,0,1-1.47-.351h-.349l-22.75-9.52-22.68,9.52A4.094,4.094,0,0,1,514.54,5116.032ZM539,5098.08h0l21.63,9.17V5059.93A7.2,7.2,0,0,0,553.7,5053H524.37a7.2,7.2,0,0,0-6.931,6.93v47.25l21.56-9.1Z" fill="#0052a0"/>
        </g>
      </g>
      <circle id="dot" cx="22" cy="22" r="22" transform="translate(546 5033)" fill="#ff754c"/>
    </g>
    <g id="star_1_4" data-name="star (1) 4">
      <path id="Vector-2" data-name="Vector" d="M577.39,5054.6a2.122,2.122,0,0,0,.49-2.17,2.088,2.088,0,0,0-1.69-1.431l-4.29-.66a.138.138,0,0,1-.09-.081l-1.88-4a2.109,2.109,0,0,0-3.85-.03l-1.88,4a.165.165,0,0,1-.042.051.168.168,0,0,1-.058.03l-4.28.689a2.121,2.121,0,0,0-1.7,1.431,2.151,2.151,0,0,0,.5,2.17l3.16,3.25a.167.167,0,0,1,.014.065.163.163,0,0,1-.014.065l-.74,4.54a2.12,2.12,0,0,0,3.13,2.21l3.73-2.07a.126.126,0,0,1,.06-.015.129.129,0,0,1,.06.015l3.73,2.07a2.13,2.13,0,0,0,3.13-2.21l-.691-4.52a.12.12,0,0,1,0-.12Z" fill="#fff"/>
    </g>
  </g>
</svg>
